<svg width="78" height="77" viewBox="0 0 78 77" fill="none" xmlns="http://www.w3.org/2000/svg">
<path d="M1 40.0284H5.49193C6.02705 40.0284 6.53901 40.0979 7.02783 40.2368C7.52178 40.3757 7.97972 40.5713 8.40165 40.8234C8.82871 41.0755 9.21462 41.3791 9.55936 41.7341C9.90924 42.084 10.2077 42.475 10.4547 42.9073C10.7016 43.3395 10.892 43.8051 11.0258 44.3042C11.1596 44.8033 11.2265 45.323 11.2265 45.8633C11.2265 46.4036 11.1596 46.9232 11.0258 47.4223C10.892 47.9214 10.7016 48.3897 10.4547 48.827C10.2077 49.2592 9.90924 49.6554 9.55936 50.0156C9.21462 50.3706 8.82871 50.6768 8.40165 50.9341C7.97972 51.1862 7.52178 51.3817 7.02783 51.5206C6.53901 51.6596 6.02705 51.729 5.49193 51.729H1V49.6143H1.93389V42.1509H1V40.0284ZM4.49629 42.1509V49.6143H5.47649C5.89327 49.6143 6.28689 49.5165 6.65736 49.321C7.02783 49.1255 7.34941 48.8605 7.62212 48.526C7.89482 48.1864 8.11093 47.7902 8.27044 47.3374C8.42994 46.8795 8.5097 46.3881 8.5097 45.8633C8.5097 45.3436 8.42994 44.8574 8.27044 44.4046C8.11093 43.9518 7.89482 43.5582 7.62212 43.2237C7.34941 42.8892 7.02783 42.6268 6.65736 42.4365C6.28689 42.2461 5.89327 42.1509 5.47649 42.1509H4.49629Z" fill="black"/>
<path d="M12.5694 40.0284H21.8774V44.0187H19.3613V42.3593H16.359V44.667H18.6821V46.9052H16.359V49.6143H19.3613V47.5381H21.8774V51.729H12.5694V49.6143H13.7966V42.3593H12.5694V40.0284Z" fill="black"/>
<path d="M23.2204 40.0284H28.2294V42.1509H26.9945V49.6143H29.5415C29.6084 49.6143 29.6727 49.5963 29.7344 49.5602C29.8013 49.5191 29.8579 49.4676 29.9042 49.4059C29.9557 49.3441 29.9969 49.2773 30.0277 49.2052C30.0586 49.1332 30.074 49.0637 30.074 48.9968V47.4301H32.5747V51.729H23.2204V49.6143H24.4321V42.1509H23.2204V40.0284Z" fill="black"/>
<path d="M33.6089 40.0284H38.618V42.1432H37.3831V49.6143H38.618V51.729H33.6089V49.6143H34.8207V42.1432H33.6089V40.0284Z" fill="black"/>
<path d="M48.3427 51.729V49.7223C48.0237 50.2832 47.7124 50.6948 47.4089 50.9572C47.1053 51.2196 46.7605 51.4306 46.3746 51.5901C45.9939 51.7496 45.4819 51.8268 44.8387 51.8216C44.5197 51.8165 44.2007 51.7805 43.8817 51.7136C43.5627 51.6416 43.254 51.5438 42.9555 51.4203C42.6571 51.2917 42.3638 51.1399 42.0757 50.9649C41.7927 50.7849 41.5354 50.579 41.3038 50.3475C40.7327 49.7712 40.2876 49.1049 39.9686 48.3485C39.6548 47.587 39.4978 46.7586 39.4978 45.8633C39.4978 45.3127 39.5647 44.7802 39.6985 44.2656C39.8323 43.7511 40.0201 43.27 40.2619 42.8224C40.5037 42.3747 40.7945 41.9682 41.1341 41.6029C41.4788 41.2324 41.8596 40.916 42.2763 40.6536C42.6982 40.3912 43.151 40.1879 43.6347 40.0438C44.1184 39.8998 44.6252 39.8277 45.1552 39.8277C45.7623 39.8277 46.2897 39.9101 46.7374 40.0747C47.185 40.2342 47.6661 40.5352 48.1807 40.9777H49.9095V43.5865H47.5246C47.2879 43.2211 47.0641 42.9561 46.8532 42.7915C46.6473 42.6268 46.4209 42.4905 46.174 42.3824C45.9321 42.2744 45.5925 42.2203 45.1552 42.2203C44.723 42.2203 44.3216 42.3181 43.9512 42.5136C43.5807 42.7092 43.2591 42.9741 42.9864 43.3086C42.7188 43.6379 42.5079 44.029 42.3535 44.4817C42.1991 44.9294 42.122 45.3899 42.122 45.8633C42.122 46.3315 42.1914 46.7766 42.3304 47.1985C42.4693 47.6204 42.6802 48.0012 42.9632 48.3408C43.2462 48.6752 43.5755 48.9325 43.9512 49.1126C44.3268 49.2927 44.7281 49.3827 45.1552 49.3827C45.7006 49.3827 46.1765 49.2232 46.583 48.9042C46.9895 48.5852 47.2828 48.1504 47.4629 47.5999H45.2324V45.4851H50.6505V51.729H48.3427Z" fill="black"/>
<path d="M60.3212 40.0284H65.338V42.1509H64.1031V49.6143H65.338V51.729H60.3212V49.6143H61.5407V46.6197H56.2615V49.6143H57.4964V51.729H52.4874V49.6143H53.6991V42.1509H52.4874V40.0284H57.4964V42.1509H56.2615V44.5821H61.5407V42.1509H60.3212V40.0284Z" fill="black"/>
<path d="M69.0812 49.6143H70.293V42.0737H68.8729V43.5865H66.3568V40.0284H77V43.5865H74.4685V42.0737H72.8554V49.6143H74.0903V51.729H69.0812V49.6143Z" fill="black"/>
<path d="M7.92862 33.0357C7.55058 33.0357 7.22325 32.9573 6.94663 32.8006C6.67924 32.6346 6.3934 32.3995 6.08912 32.0952C5.9877 32.6208 5.87244 33.0772 5.74335 33.4645C5.62348 33.8425 5.46673 34.2113 5.2731 34.5709C5.08869 34.9213 4.85357 35.1933 4.56773 35.3869C4.29112 35.5714 3.9684 35.6636 3.59958 35.6636C3.12933 35.6636 2.74206 35.5345 2.43779 35.2763C2.14273 35.0089 1.9952 34.6539 1.9952 34.2113C1.9952 33.9992 2.05974 33.7872 2.18883 33.5751C2.32714 33.3538 2.50694 33.2432 2.72823 33.2432C2.87576 33.2432 3.00024 33.2985 3.10167 33.4091C3.21231 33.5198 3.26764 33.6535 3.26764 33.8102C3.26764 33.9393 3.2077 34.0546 3.08784 34.156C2.96797 34.2574 2.84349 34.322 2.7144 34.3496C2.7144 34.534 2.78356 34.7 2.92187 34.8475C3.06017 34.9951 3.24458 35.0688 3.4751 35.0688C3.77016 35.0688 4.03294 34.9766 4.26345 34.7922C4.49397 34.5986 4.6876 34.3174 4.84435 33.9485C5.0011 33.5797 5.12557 33.2155 5.21778 32.8559C5.30999 32.4963 5.4068 32.0537 5.50823 31.5281C5.08408 31.1685 4.67377 30.9887 4.27729 30.9887C4.01911 30.9887 3.7886 31.0579 3.58574 31.1962C3.38289 31.3253 3.28147 31.5005 3.28147 31.7218C3.28147 31.9431 3.37828 32.0537 3.57191 32.0537C3.64568 32.0537 3.74249 32.0122 3.86236 31.9292C3.99145 31.837 4.06982 31.7909 4.09748 31.7909C4.18047 31.7909 4.27267 31.8555 4.3741 31.9846C4.47553 32.1044 4.52624 32.2105 4.52624 32.3027C4.52624 32.6162 4.32339 32.7729 3.91768 32.7729C3.59497 32.7729 3.30913 32.6899 3.06017 32.524C2.81122 32.3488 2.68674 32.0906 2.68674 31.7494C2.68674 31.3345 2.83427 30.998 3.12933 30.7398C3.42438 30.4816 3.79321 30.3525 4.23579 30.3525C4.71526 30.3525 5.17629 30.5323 5.61887 30.8919C5.72952 30.228 5.84017 29.6702 5.95081 29.2184C5.60965 29.0985 5.20395 28.9326 4.7337 28.7205C4.27267 28.4992 3.87619 28.324 3.54425 28.1949C3.22153 28.0566 2.96336 27.9875 2.76973 27.9875C2.52077 27.9875 2.31792 28.0704 2.16117 28.2364C2.00442 28.3932 1.92605 28.6283 1.92605 28.9418C1.92605 29.2829 2.06897 29.4535 2.3548 29.4535C2.50233 29.4535 2.63603 29.3521 2.7559 29.1492C2.88498 28.9372 2.98641 28.8311 3.06017 28.8311C3.15238 28.8311 3.24458 28.8818 3.33679 28.9833C3.43822 29.0847 3.48893 29.1815 3.48893 29.2737C3.48893 29.4858 3.3875 29.6656 3.18465 29.8131C2.9818 29.9607 2.73745 30.0344 2.45162 30.0344C2.07358 30.0344 1.78313 29.9284 1.58028 29.7163C1.37742 29.5042 1.276 29.223 1.276 28.8726C1.276 28.3932 1.4097 28.0197 1.67709 27.7523C1.95371 27.4757 2.30409 27.3374 2.72823 27.3374C3.07861 27.3374 3.63646 27.531 4.40176 27.9183C5.17629 28.3056 5.74335 28.5499 6.10295 28.6513C6.54554 27.2867 7.19098 26.6044 8.03927 26.6044C8.46341 26.6044 8.78613 26.7058 9.00742 26.9087C9.23794 27.1023 9.35319 27.3512 9.35319 27.6555C9.35319 28.0797 9.16417 28.49 8.78613 28.8865C8.41731 29.2737 7.94245 29.4674 7.36156 29.4674C7.13104 29.4674 6.87748 29.4443 6.60086 29.3982C6.54554 29.6472 6.47177 30.0206 6.37957 30.5185C6.29658 31.0072 6.24126 31.3207 6.2136 31.459C6.42567 31.6711 6.59164 31.8324 6.71151 31.9431C6.8406 32.0445 7.01118 32.1459 7.22325 32.2473C7.44454 32.3488 7.66583 32.3995 7.88713 32.3995C8.1453 32.3995 8.37582 32.3349 8.57867 32.2059C8.78152 32.0675 8.88295 31.8877 8.88295 31.6665C8.88295 31.4452 8.78613 31.3345 8.5925 31.3345C8.51873 31.3345 8.42192 31.3806 8.30205 31.4728C8.18218 31.5558 8.10842 31.5973 8.08076 31.5973C7.98855 31.5973 7.89174 31.5374 7.79031 31.4175C7.68889 31.2884 7.63817 31.1778 7.63817 31.0856C7.63817 30.7721 7.84102 30.6153 8.24673 30.6153C8.56945 30.6153 8.85528 30.7029 9.10424 30.8781C9.35319 31.0441 9.47767 31.2976 9.47767 31.6388C9.47767 32.0537 9.33014 32.3903 9.03508 32.6484C8.74003 32.9066 8.37121 33.0357 7.92862 33.0357ZM7.54136 27.3512C7.20942 27.6186 6.94663 28.1073 6.753 28.8173C6.94663 28.845 7.14026 28.8588 7.33389 28.8588C7.66583 28.8588 7.9655 28.7481 8.2329 28.5269C8.50951 28.2963 8.64782 27.9921 8.64782 27.614C8.64782 27.4665 8.59711 27.3466 8.49568 27.2544C8.39426 27.153 8.26978 27.1023 8.12225 27.1023C7.92862 27.1023 7.73499 27.1853 7.54136 27.3512Z" fill="black"/>
<path d="M13.1071 35.5529C12.1666 35.5529 11.4428 35.2901 10.9356 34.7646C10.4377 34.2298 10.1888 33.5382 10.1888 32.6899C10.1888 32.3857 10.2257 32.0629 10.2994 31.7218C10.3824 31.3806 10.5161 31.0256 10.7005 30.6568C10.8849 30.288 11.1154 29.9607 11.392 29.6748C11.6687 29.3798 12.0237 29.14 12.457 28.9556C12.8904 28.762 13.3699 28.6652 13.8954 28.6652C14.8359 28.6652 15.5597 28.9326 16.0669 29.4674C16.574 29.9929 16.8276 30.6799 16.8276 31.5281C16.8276 31.8324 16.7861 32.1598 16.7031 32.5101C16.6293 32.8513 16.4956 33.2063 16.302 33.5751C16.1084 33.9347 15.8732 34.262 15.5966 34.5571C15.3292 34.8429 14.9788 35.0827 14.5455 35.2763C14.1121 35.4607 13.6326 35.5529 13.1071 35.5529ZM13.1071 34.972C13.7248 34.972 14.2689 34.7968 14.7391 34.4464C15.2094 34.0868 15.5551 33.6581 15.7764 33.1602C15.9977 32.6623 16.1084 32.1551 16.1084 31.6388C16.1084 31.2423 16.0484 30.8781 15.9286 30.5462C15.8087 30.205 15.5782 29.9053 15.237 29.6472C14.8959 29.3798 14.4579 29.2461 13.9231 29.2461C13.3053 29.2461 12.7567 29.4259 12.2772 29.7855C11.807 30.1358 11.4612 30.56 11.2399 31.0579C11.0186 31.5558 10.908 32.0629 10.908 32.5793C10.908 32.9758 10.9679 33.3446 11.0878 33.6857C11.2076 34.0177 11.4382 34.3174 11.7793 34.5848C12.1297 34.8429 12.5723 34.972 13.1071 34.972ZM13.0241 31.7494C12.8397 31.5835 12.7475 31.4636 12.7475 31.3898C12.7475 31.3069 12.8028 31.2331 12.9134 31.1685C13.0241 31.0948 13.1301 31.0579 13.2315 31.0579C13.2776 31.0579 13.3145 31.0902 13.3422 31.1547C13.3699 31.21 13.3883 31.293 13.3975 31.4037C13.4067 31.5143 13.4113 31.5742 13.4113 31.5835C13.4943 31.5835 13.5727 31.5927 13.6465 31.6111C13.6557 31.6019 13.6741 31.542 13.7018 31.4313C13.7387 31.3207 13.7756 31.2423 13.8124 31.1962C13.8493 31.1409 13.8908 31.1132 13.9369 31.1132C14.0476 31.1132 14.1582 31.1593 14.2689 31.2515C14.3795 31.3437 14.4348 31.4405 14.4348 31.542C14.4348 31.5973 14.2919 31.6895 14.0061 31.8186C14.0522 31.8647 14.0798 31.9108 14.0891 31.9569C14.3104 31.8463 14.4487 31.7909 14.504 31.7909C14.6792 31.7909 14.7668 31.8924 14.7668 32.0952C14.7668 32.381 14.6515 32.524 14.421 32.524C14.3933 32.524 14.2781 32.4825 14.0752 32.3995C14.066 32.4271 14.0199 32.4825 13.9369 32.5655C14.149 32.7775 14.255 32.9204 14.255 32.9942C14.255 33.0864 14.2043 33.1648 14.1029 33.2293C14.0107 33.2847 13.9093 33.3123 13.7986 33.3123C13.6972 33.3123 13.6234 33.1141 13.5773 32.7176C13.5128 32.736 13.4482 32.736 13.3837 32.7176C13.3745 32.7268 13.3468 32.8006 13.3007 32.9389C13.2546 33.068 13.2085 33.1648 13.1624 33.2293C13.1163 33.2939 13.0702 33.3261 13.0241 33.3261C12.9227 33.3261 12.8166 33.28 12.706 33.1878C12.5953 33.0956 12.54 32.9988 12.54 32.8974C12.54 32.8605 12.6829 32.736 12.9688 32.524C12.9319 32.4871 12.895 32.4318 12.8581 32.358C12.812 32.4041 12.6829 32.4271 12.4709 32.4271C12.3233 32.4271 12.2496 32.3257 12.2496 32.1229C12.2496 31.9477 12.3279 31.8601 12.4847 31.8601C12.6968 31.8601 12.8258 31.8785 12.8719 31.9154C12.9088 31.8416 12.9595 31.7863 13.0241 31.7494ZM13.1762 31.9016C13.1025 31.9753 13.0656 32.0629 13.0656 32.1644C13.0656 32.2658 13.1025 32.358 13.1762 32.441C13.2592 32.5147 13.3514 32.5516 13.4528 32.5516C13.5543 32.5516 13.6419 32.5147 13.7156 32.441C13.7986 32.358 13.8401 32.2658 13.8401 32.1644C13.8401 32.0629 13.7986 31.9753 13.7156 31.9016C13.6419 31.8186 13.5543 31.7771 13.4528 31.7771C13.3514 31.7771 13.2592 31.8186 13.1762 31.9016Z" fill="black"/>
<path d="M20.5492 35.5529C19.6087 35.5529 18.8849 35.2901 18.3778 34.7646C17.8799 34.2298 17.6309 33.5382 17.6309 32.6899C17.6309 32.3857 17.6678 32.0629 17.7416 31.7218C17.8246 31.3806 17.9583 31.0256 18.1427 30.6568C18.3271 30.288 18.5576 29.9607 18.8342 29.6748C19.1108 29.3798 19.4658 29.14 19.8992 28.9556C20.3326 28.762 20.812 28.6652 21.3376 28.6652C22.2781 28.6652 23.0019 28.9326 23.509 29.4674C24.0162 29.9929 24.2697 30.6799 24.2697 31.5281C24.2697 31.8324 24.2282 32.1598 24.1452 32.5101C24.0715 32.8513 23.9378 33.2063 23.7442 33.5751C23.5505 33.9347 23.3154 34.262 23.0388 34.5571C22.7714 34.8429 22.421 35.0827 21.9876 35.2763C21.5543 35.4607 21.0748 35.5529 20.5492 35.5529ZM20.5492 34.972C21.167 34.972 21.711 34.7968 22.1813 34.4464C22.6515 34.0868 22.9973 33.6581 23.2186 33.1602C23.4399 32.6623 23.5505 32.1551 23.5505 31.6388C23.5505 31.2423 23.4906 30.8781 23.3707 30.5462C23.2509 30.205 23.0203 29.9053 22.6792 29.6472C22.338 29.3798 21.9 29.2461 21.3653 29.2461C20.7475 29.2461 20.1989 29.4259 19.7194 29.7855C19.2491 30.1358 18.9034 30.56 18.6821 31.0579C18.4608 31.5558 18.3501 32.0629 18.3501 32.5793C18.3501 32.9758 18.4101 33.3446 18.5299 33.6857C18.6498 34.0177 18.8803 34.3174 19.2215 34.5848C19.5719 34.8429 20.0144 34.972 20.5492 34.972ZM20.4662 31.7494C20.2818 31.5835 20.1896 31.4636 20.1896 31.3898C20.1896 31.3069 20.245 31.2331 20.3556 31.1685C20.4662 31.0948 20.5723 31.0579 20.6737 31.0579C20.7198 31.0579 20.7567 31.0902 20.7844 31.1547C20.812 31.21 20.8305 31.293 20.8397 31.4037C20.8489 31.5143 20.8535 31.5742 20.8535 31.5835C20.9365 31.5835 21.0149 31.5927 21.0886 31.6111C21.0979 31.6019 21.1163 31.542 21.144 31.4313C21.1808 31.3207 21.2177 31.2423 21.2546 31.1962C21.2915 31.1409 21.333 31.1132 21.3791 31.1132C21.4897 31.1132 21.6004 31.1593 21.711 31.2515C21.8217 31.3437 21.877 31.4405 21.877 31.542C21.877 31.5973 21.7341 31.6895 21.4482 31.8186C21.4943 31.8647 21.522 31.9108 21.5312 31.9569C21.7525 31.8463 21.8908 31.7909 21.9461 31.7909C22.1213 31.7909 22.2089 31.8924 22.2089 32.0952C22.2089 32.381 22.0937 32.524 21.8632 32.524C21.8355 32.524 21.7202 32.4825 21.5174 32.3995C21.5082 32.4271 21.4621 32.4825 21.3791 32.5655C21.5912 32.7775 21.6972 32.9204 21.6972 32.9942C21.6972 33.0864 21.6465 33.1648 21.5451 33.2293C21.4528 33.2847 21.3514 33.3123 21.2408 33.3123C21.1393 33.3123 21.0656 33.1141 21.0195 32.7176C20.9549 32.736 20.8904 32.736 20.8259 32.7176C20.8166 32.7268 20.789 32.8006 20.7429 32.9389C20.6968 33.068 20.6507 33.1648 20.6046 33.2293C20.5585 33.2939 20.5124 33.3261 20.4662 33.3261C20.3648 33.3261 20.2588 33.28 20.1481 33.1878C20.0375 33.0956 19.9822 32.9988 19.9822 32.8974C19.9822 32.8605 20.1251 32.736 20.4109 32.524C20.374 32.4871 20.3372 32.4318 20.3003 32.358C20.2542 32.4041 20.1251 32.4271 19.913 32.4271C19.7655 32.4271 19.6917 32.3257 19.6917 32.1229C19.6917 31.9477 19.7701 31.8601 19.9268 31.8601C20.1389 31.8601 20.268 31.8785 20.3141 31.9154C20.351 31.8416 20.4017 31.7863 20.4662 31.7494ZM20.6184 31.9016C20.5446 31.9753 20.5077 32.0629 20.5077 32.1644C20.5077 32.2658 20.5446 32.358 20.6184 32.441C20.7014 32.5147 20.7936 32.5516 20.895 32.5516C20.9964 32.5516 21.084 32.5147 21.1578 32.441C21.2408 32.358 21.2823 32.2658 21.2823 32.1644C21.2823 32.0629 21.2408 31.9753 21.1578 31.9016C21.084 31.8186 20.9964 31.7771 20.895 31.7771C20.7936 31.7771 20.7014 31.8186 20.6184 31.9016Z" fill="black"/>
<path d="M26.9264 32.192C26.9264 31.8324 27.0463 31.5466 27.286 31.3345C27.5258 31.1224 27.8208 31.0164 28.1712 31.0164C28.3648 31.0164 28.5354 31.0579 28.6829 31.1409C28.8305 31.2146 28.9549 31.3161 29.0564 31.4452C29.167 31.5742 29.2454 31.7172 29.2915 31.8739C29.3468 32.0307 29.3745 32.192 29.3745 32.358C29.3745 32.6807 29.2684 32.9527 29.0564 33.174C28.8535 33.3953 28.5907 33.5059 28.268 33.5059C28.102 33.5059 27.9361 33.4783 27.7701 33.423C27.6134 33.3584 27.4704 33.2708 27.3414 33.1602C27.2215 33.0495 27.1201 32.9158 27.0371 32.7591C26.9633 32.5931 26.9264 32.4041 26.9264 32.192ZM32.5002 25.7054C32.03 25.7054 31.6612 25.8898 31.3938 26.2586C31.1356 26.6182 30.9696 27.0885 30.8959 27.6693C30.8221 28.2502 30.776 28.8911 30.7576 29.5918C30.7391 30.2926 30.6976 30.9934 30.6331 31.6941C30.5778 32.3949 30.4717 33.0357 30.315 33.6166C30.1582 34.1975 29.8678 34.6723 29.4436 35.0412C29.0287 35.4008 28.4801 35.5806 27.7978 35.5806C27.1247 35.5806 26.5392 35.3316 26.0413 34.8337C25.5433 34.3266 25.2944 33.6719 25.2944 32.8697C25.2944 31.6157 25.6171 30.6015 26.2625 29.827C26.9172 29.0432 27.7148 28.6513 28.6553 28.6513C29.1532 28.6513 29.6511 28.7666 30.149 28.9971C30.1859 28.3885 30.2366 27.8768 30.3011 27.4619C30.3749 27.047 30.4948 26.6366 30.6607 26.2309C30.8267 25.8252 31.0618 25.521 31.3661 25.3181C31.6796 25.106 32.0623 25 32.5141 25C33.012 25 33.3946 25.1614 33.662 25.4841C33.9386 25.7976 34.077 26.171 34.077 26.6044C34.077 27.047 33.9433 27.4342 33.6759 27.7662C33.4085 28.0981 33.0489 28.2641 32.5971 28.2641C32.3204 28.2641 32.0945 28.1719 31.9194 27.9875C31.7442 27.803 31.6566 27.6002 31.6566 27.3789C31.6566 27.176 31.7073 27.0193 31.8087 26.9087C31.9194 26.7888 32.0484 26.7289 32.196 26.7289C32.3251 26.7289 32.4311 26.775 32.5141 26.8672C32.6063 26.9501 32.6524 27.07 32.6524 27.2268C32.6524 27.3743 32.6017 27.5264 32.5002 27.6832C32.7953 27.674 33.0258 27.5633 33.1918 27.3512C33.3578 27.1392 33.4407 26.8994 33.4407 26.632C33.4407 26.3739 33.3578 26.1572 33.1918 25.982C33.035 25.7976 32.8045 25.7054 32.5002 25.7054ZM27.8669 34.9444C28.1159 34.9444 28.3372 34.9121 28.5308 34.8475C28.7337 34.783 28.9088 34.677 29.0564 34.5294C29.2039 34.3727 29.3284 34.2205 29.4298 34.073C29.5405 33.9163 29.628 33.6996 29.6926 33.423C29.7664 33.1463 29.8263 32.9112 29.8724 32.7176C29.9185 32.5147 29.9554 32.2335 29.983 31.8739C30.0199 31.5143 30.043 31.2285 30.0522 31.0164C30.0614 30.7951 30.0752 30.4862 30.0937 30.0897C30.1029 29.9422 30.1075 29.8316 30.1075 29.7578C29.6188 29.4627 29.1532 29.3152 28.7106 29.3152C27.9914 29.3152 27.3598 29.6425 26.8158 30.2972C26.281 30.9519 26.0136 31.7863 26.0136 32.8006C26.0136 33.3723 26.198 33.8748 26.5668 34.3081C26.9449 34.7323 27.3782 34.9444 27.8669 34.9444ZM27.4658 32.2473C27.4658 32.4686 27.5304 32.6669 27.6595 32.8421C27.7885 33.008 27.9683 33.091 28.1989 33.091C28.4109 33.091 28.5723 33.0219 28.6829 32.8836C28.8028 32.7453 28.8627 32.5562 28.8627 32.3165C28.8627 32.086 28.8028 31.8877 28.6829 31.7218C28.5631 31.5558 28.3833 31.4728 28.1435 31.4728C27.9222 31.4728 27.7517 31.5466 27.6318 31.6941C27.5212 31.8324 27.4658 32.0168 27.4658 32.2473Z" fill="black"/>
<path d="M35.8741 25.0138C36.2153 25.0138 36.4965 25.1245 36.7178 25.3458C36.9391 25.5671 37.0497 25.8483 37.0497 26.1894C37.0497 26.5767 36.9206 26.8856 36.6625 27.1161C36.4043 27.3466 36.1 27.4619 35.7496 27.4619C35.3992 27.4619 35.1134 27.3558 34.8921 27.1438C34.6708 26.9317 34.5602 26.6551 34.5602 26.3139C34.5602 25.9728 34.68 25.6731 34.9198 25.4149C35.1687 25.1475 35.4868 25.0138 35.8741 25.0138ZM35.8188 25.7192C35.6436 25.7192 35.4914 25.7699 35.3624 25.8713C35.2425 25.9635 35.1826 26.1019 35.1826 26.2863C35.1826 26.6182 35.3716 26.7842 35.7496 26.7842C35.9248 26.7842 36.0769 26.7381 36.206 26.6459C36.3351 26.5537 36.3997 26.4154 36.3997 26.2309C36.3997 25.8898 36.206 25.7192 35.8188 25.7192ZM36.4135 34.5709C36.1738 34.4603 36.0539 34.2805 36.0539 34.0315C36.0539 33.8563 36.1138 33.7042 36.2337 33.5751C36.3536 33.446 36.5057 33.3815 36.6901 33.3815C36.8653 33.3815 37.0174 33.4506 37.1465 33.5889C37.2756 33.7272 37.3402 33.8886 37.3402 34.073C37.3402 34.4972 37.105 34.8521 36.6348 35.138C36.1645 35.4238 35.6897 35.5667 35.2102 35.5667C34.8414 35.5667 34.5325 35.4699 34.2836 35.2763C34.0438 35.0827 33.924 34.7968 33.924 34.4188C33.924 34.0039 34.0623 33.4598 34.3389 32.7867C34.6155 32.1044 34.8921 31.459 35.1687 30.8504C35.4453 30.2327 35.5836 29.7993 35.5836 29.5503C35.5836 29.3106 35.4638 29.1907 35.2241 29.1907C35.0212 29.1907 34.7676 29.2645 34.4634 29.412C34.1683 29.5596 33.9747 29.7071 33.8825 29.8546C33.9931 29.8915 34.0853 29.956 34.1591 30.0482C34.2421 30.1405 34.2836 30.2465 34.2836 30.3664C34.2836 30.5139 34.2328 30.643 34.1314 30.7536C34.03 30.8643 33.9101 30.9196 33.7718 30.9196C33.4307 30.9196 33.2601 30.643 33.2601 30.0897C33.2601 29.6564 33.4629 29.3014 33.8686 29.0248C34.2836 28.7481 34.7261 28.6098 35.1964 28.6098C35.5099 28.6098 35.7681 28.6928 35.9709 28.8588C36.1738 29.0248 36.2752 29.2691 36.2752 29.5918C36.2752 29.8039 36.1369 30.2142 35.8603 30.8228C35.5929 31.4313 35.3255 32.0722 35.0581 32.7453C34.7907 33.4091 34.657 33.9301 34.657 34.3081C34.657 34.7323 34.8552 34.9444 35.2517 34.9444C35.7496 34.9444 36.1369 34.8199 36.4135 34.5709Z" fill="black"/>
<path d="M42.4479 33.4368C42.4295 33.5843 42.3557 33.7134 42.2267 33.8241C42.1068 33.9347 41.9685 33.99 41.8117 33.99C41.6734 33.99 41.5536 33.9485 41.4521 33.8656C41.3599 33.7733 41.3138 33.6489 41.3138 33.4921C41.3138 33.3261 41.3968 33.1832 41.5628 33.0634C41.7287 32.9435 41.9408 32.8836 42.199 32.8836C42.4756 32.8836 42.6923 32.9758 42.849 33.1602C43.0058 33.3446 43.0842 33.5751 43.0842 33.8517C43.0842 34.3496 42.8951 34.7646 42.5171 35.0965C42.1483 35.4192 41.6412 35.5806 40.9957 35.5806C40.2212 35.5806 39.5757 35.3362 39.0594 34.8475C38.543 34.3588 38.2849 33.6535 38.2849 32.7314C38.2849 32.0768 38.4232 31.4405 38.6998 30.8228C38.9856 30.1958 39.4006 29.6748 39.9446 29.2599C40.4978 28.8357 41.111 28.6237 41.7841 28.6237C42.4387 28.6237 42.9459 28.7804 43.3055 29.0939C43.6743 29.3982 43.8587 29.7716 43.8587 30.2142C43.8587 30.8689 43.5636 31.3852 42.9735 31.7633C42.3834 32.1413 41.7011 32.3303 40.9266 32.3303C40.2166 32.3303 39.6357 32.1782 39.1839 31.8739C39.0917 32.1505 39.0456 32.4686 39.0456 32.8282C39.0456 33.4921 39.2254 34.0131 39.585 34.3911C39.9446 34.7692 40.4517 34.9582 41.1064 34.9582C41.4475 34.9582 41.7702 34.866 42.0745 34.6816C42.388 34.4879 42.5448 34.2298 42.5448 33.907C42.5448 33.7226 42.5125 33.5659 42.4479 33.4368ZM39.3775 31.3622C39.7187 31.6019 40.1935 31.7218 40.8021 31.7218C41.4291 31.7218 41.9777 31.5881 42.4479 31.3207C42.9274 31.0441 43.1671 30.6522 43.1671 30.1451C43.1671 29.5457 42.7707 29.2461 41.9777 29.2461C41.3599 29.2461 40.8113 29.4535 40.3318 29.8684C39.8524 30.2834 39.5343 30.7813 39.3775 31.3622Z" fill="black"/>
<path d="M1 40.0284H5.49193C6.02705 40.0284 6.53901 40.0979 7.02783 40.2368C7.52178 40.3757 7.97972 40.5713 8.40165 40.8234C8.82871 41.0755 9.21462 41.3791 9.55936 41.7341C9.90924 42.084 10.2077 42.475 10.4547 42.9073C10.7016 43.3395 10.892 43.8051 11.0258 44.3042C11.1596 44.8033 11.2265 45.323 11.2265 45.8633C11.2265 46.4036 11.1596 46.9232 11.0258 47.4223C10.892 47.9214 10.7016 48.3897 10.4547 48.827C10.2077 49.2592 9.90924 49.6554 9.55936 50.0156C9.21462 50.3706 8.82871 50.6768 8.40165 50.9341C7.97972 51.1862 7.52178 51.3817 7.02783 51.5206C6.53901 51.6596 6.02705 51.729 5.49193 51.729H1V49.6143H1.93389V42.1509H1V40.0284ZM4.49629 42.1509V49.6143H5.47649C5.89327 49.6143 6.28689 49.5165 6.65736 49.321C7.02783 49.1255 7.34941 48.8605 7.62212 48.526C7.89482 48.1864 8.11093 47.7902 8.27044 47.3374C8.42994 46.8795 8.5097 46.3881 8.5097 45.8633C8.5097 45.3436 8.42994 44.8574 8.27044 44.4046C8.11093 43.9518 7.89482 43.5582 7.62212 43.2237C7.34941 42.8892 7.02783 42.6268 6.65736 42.4365C6.28689 42.2461 5.89327 42.1509 5.47649 42.1509H4.49629Z" stroke="black" stroke-width="0.5"/>
<path d="M12.5694 40.0284H21.8774V44.0187H19.3613V42.3593H16.359V44.667H18.6821V46.9052H16.359V49.6143H19.3613V47.5381H21.8774V51.729H12.5694V49.6143H13.7966V42.3593H12.5694V40.0284Z" stroke="black" stroke-width="0.5"/>
<path d="M23.2204 40.0284H28.2294V42.1509H26.9945V49.6143H29.5415C29.6084 49.6143 29.6727 49.5963 29.7344 49.5602C29.8013 49.5191 29.8579 49.4676 29.9042 49.4059C29.9557 49.3441 29.9969 49.2773 30.0277 49.2052C30.0586 49.1332 30.074 49.0637 30.074 48.9968V47.4301H32.5747V51.729H23.2204V49.6143H24.4321V42.1509H23.2204V40.0284Z" stroke="black" stroke-width="0.5"/>
<path d="M33.6089 40.0284H38.618V42.1432H37.3831V49.6143H38.618V51.729H33.6089V49.6143H34.8207V42.1432H33.6089V40.0284Z" stroke="black" stroke-width="0.5"/>
<path d="M48.3427 51.729V49.7223C48.0237 50.2832 47.7124 50.6948 47.4089 50.9572C47.1053 51.2196 46.7605 51.4306 46.3746 51.5901C45.9939 51.7496 45.4819 51.8268 44.8387 51.8216C44.5197 51.8165 44.2007 51.7805 43.8817 51.7136C43.5627 51.6416 43.254 51.5438 42.9555 51.4203C42.6571 51.2917 42.3638 51.1399 42.0757 50.9649C41.7927 50.7849 41.5354 50.579 41.3038 50.3475C40.7327 49.7712 40.2876 49.1049 39.9686 48.3485C39.6548 47.587 39.4978 46.7586 39.4978 45.8633C39.4978 45.3127 39.5647 44.7802 39.6985 44.2656C39.8323 43.7511 40.0201 43.27 40.2619 42.8224C40.5037 42.3747 40.7945 41.9682 41.1341 41.6029C41.4788 41.2324 41.8596 40.916 42.2763 40.6536C42.6982 40.3912 43.151 40.1879 43.6347 40.0438C44.1184 39.8998 44.6252 39.8277 45.1552 39.8277C45.7623 39.8277 46.2897 39.9101 46.7374 40.0747C47.185 40.2342 47.6661 40.5352 48.1807 40.9777H49.9095V43.5865H47.5246C47.2879 43.2211 47.0641 42.9561 46.8532 42.7915C46.6473 42.6268 46.4209 42.4905 46.174 42.3824C45.9321 42.2744 45.5925 42.2203 45.1552 42.2203C44.723 42.2203 44.3216 42.3181 43.9512 42.5136C43.5807 42.7092 43.2591 42.9741 42.9864 43.3086C42.7188 43.6379 42.5079 44.029 42.3535 44.4817C42.1991 44.9294 42.122 45.3899 42.122 45.8633C42.122 46.3315 42.1914 46.7766 42.3304 47.1985C42.4693 47.6204 42.6802 48.0012 42.9632 48.3408C43.2462 48.6752 43.5755 48.9325 43.9512 49.1126C44.3268 49.2927 44.7281 49.3827 45.1552 49.3827C45.7006 49.3827 46.1765 49.2232 46.583 48.9042C46.9895 48.5852 47.2828 48.1504 47.4629 47.5999H45.2324V45.4851H50.6505V51.729H48.3427Z" stroke="black" stroke-width="0.5"/>
<path d="M60.3212 40.0284H65.338V42.1509H64.1031V49.6143H65.338V51.729H60.3212V49.6143H61.5407V46.6197H56.2615V49.6143H57.4964V51.729H52.4874V49.6143H53.6991V42.1509H52.4874V40.0284H57.4964V42.1509H56.2615V44.5821H61.5407V42.1509H60.3212V40.0284Z" stroke="black" stroke-width="0.5"/>
<path d="M69.0812 49.6143H70.293V42.0737H68.8729V43.5865H66.3568V40.0284H77V43.5865H74.4685V42.0737H72.8554V49.6143H74.0903V51.729H69.0812V49.6143Z" stroke="black" stroke-width="0.5"/>
<path d="M7.92862 33.0357C7.55058 33.0357 7.22325 32.9573 6.94663 32.8006C6.67924 32.6346 6.3934 32.3995 6.08912 32.0952C5.9877 32.6208 5.87244 33.0772 5.74335 33.4645C5.62348 33.8425 5.46673 34.2113 5.2731 34.5709C5.08869 34.9213 4.85357 35.1933 4.56773 35.3869C4.29112 35.5714 3.9684 35.6636 3.59958 35.6636C3.12933 35.6636 2.74206 35.5345 2.43779 35.2763C2.14273 35.0089 1.9952 34.6539 1.9952 34.2113C1.9952 33.9992 2.05974 33.7872 2.18883 33.5751C2.32714 33.3538 2.50694 33.2432 2.72823 33.2432C2.87576 33.2432 3.00024 33.2985 3.10167 33.4091C3.21231 33.5198 3.26764 33.6535 3.26764 33.8102C3.26764 33.9393 3.2077 34.0546 3.08784 34.156C2.96797 34.2574 2.84349 34.322 2.7144 34.3496C2.7144 34.534 2.78356 34.7 2.92187 34.8475C3.06017 34.9951 3.24458 35.0688 3.4751 35.0688C3.77016 35.0688 4.03294 34.9766 4.26345 34.7922C4.49397 34.5986 4.6876 34.3174 4.84435 33.9485C5.0011 33.5797 5.12557 33.2155 5.21778 32.8559C5.30999 32.4963 5.4068 32.0537 5.50823 31.5281C5.08408 31.1685 4.67377 30.9887 4.27729 30.9887C4.01911 30.9887 3.7886 31.0579 3.58574 31.1962C3.38289 31.3253 3.28147 31.5005 3.28147 31.7218C3.28147 31.9431 3.37828 32.0537 3.57191 32.0537C3.64568 32.0537 3.74249 32.0122 3.86236 31.9292C3.99145 31.837 4.06982 31.7909 4.09748 31.7909C4.18047 31.7909 4.27267 31.8555 4.3741 31.9846C4.47553 32.1044 4.52624 32.2105 4.52624 32.3027C4.52624 32.6162 4.32339 32.7729 3.91768 32.7729C3.59497 32.7729 3.30913 32.6899 3.06017 32.524C2.81122 32.3488 2.68674 32.0906 2.68674 31.7494C2.68674 31.3345 2.83427 30.998 3.12933 30.7398C3.42438 30.4816 3.79321 30.3525 4.23579 30.3525C4.71526 30.3525 5.17629 30.5323 5.61887 30.8919C5.72952 30.228 5.84017 29.6702 5.95081 29.2184C5.60965 29.0985 5.20395 28.9326 4.7337 28.7205C4.27267 28.4992 3.87619 28.324 3.54425 28.1949C3.22153 28.0566 2.96336 27.9875 2.76973 27.9875C2.52077 27.9875 2.31792 28.0704 2.16117 28.2364C2.00442 28.3932 1.92605 28.6283 1.92605 28.9418C1.92605 29.2829 2.06897 29.4535 2.3548 29.4535C2.50233 29.4535 2.63603 29.3521 2.7559 29.1492C2.88498 28.9372 2.98641 28.8311 3.06017 28.8311C3.15238 28.8311 3.24458 28.8818 3.33679 28.9833C3.43822 29.0847 3.48893 29.1815 3.48893 29.2737C3.48893 29.4858 3.3875 29.6656 3.18465 29.8131C2.9818 29.9607 2.73745 30.0344 2.45162 30.0344C2.07358 30.0344 1.78313 29.9284 1.58028 29.7163C1.37742 29.5042 1.276 29.223 1.276 28.8726C1.276 28.3932 1.4097 28.0197 1.67709 27.7523C1.95371 27.4757 2.30409 27.3374 2.72823 27.3374C3.07861 27.3374 3.63646 27.531 4.40176 27.9183C5.17629 28.3056 5.74335 28.5499 6.10295 28.6513C6.54554 27.2867 7.19098 26.6044 8.03927 26.6044C8.46341 26.6044 8.78613 26.7058 9.00742 26.9087C9.23794 27.1023 9.35319 27.3512 9.35319 27.6555C9.35319 28.0797 9.16417 28.49 8.78613 28.8865C8.41731 29.2737 7.94245 29.4674 7.36156 29.4674C7.13104 29.4674 6.87748 29.4443 6.60086 29.3982C6.54554 29.6472 6.47177 30.0206 6.37957 30.5185C6.29658 31.0072 6.24126 31.3207 6.2136 31.459C6.42567 31.6711 6.59164 31.8324 6.71151 31.9431C6.8406 32.0445 7.01118 32.1459 7.22325 32.2473C7.44454 32.3488 7.66583 32.3995 7.88713 32.3995C8.1453 32.3995 8.37582 32.3349 8.57867 32.2059C8.78152 32.0675 8.88295 31.8877 8.88295 31.6665C8.88295 31.4452 8.78613 31.3345 8.5925 31.3345C8.51873 31.3345 8.42192 31.3806 8.30205 31.4728C8.18218 31.5558 8.10842 31.5973 8.08076 31.5973C7.98855 31.5973 7.89174 31.5374 7.79031 31.4175C7.68889 31.2884 7.63817 31.1778 7.63817 31.0856C7.63817 30.7721 7.84102 30.6153 8.24673 30.6153C8.56945 30.6153 8.85528 30.7029 9.10424 30.8781C9.35319 31.0441 9.47767 31.2976 9.47767 31.6388C9.47767 32.0537 9.33014 32.3903 9.03508 32.6484C8.74003 32.9066 8.37121 33.0357 7.92862 33.0357ZM7.54136 27.3512C7.20942 27.6186 6.94663 28.1073 6.753 28.8173C6.94663 28.845 7.14026 28.8588 7.33389 28.8588C7.66583 28.8588 7.9655 28.7481 8.2329 28.5269C8.50951 28.2963 8.64782 27.9921 8.64782 27.614C8.64782 27.4665 8.59711 27.3466 8.49568 27.2544C8.39426 27.153 8.26978 27.1023 8.12225 27.1023C7.92862 27.1023 7.73499 27.1853 7.54136 27.3512Z" stroke="black" stroke-width="0.5"/>
<path d="M13.1071 35.5529C12.1666 35.5529 11.4428 35.2901 10.9356 34.7646C10.4377 34.2298 10.1888 33.5382 10.1888 32.6899C10.1888 32.3857 10.2257 32.0629 10.2994 31.7218C10.3824 31.3806 10.5161 31.0256 10.7005 30.6568C10.8849 30.288 11.1154 29.9607 11.392 29.6748C11.6687 29.3798 12.0237 29.14 12.457 28.9556C12.8904 28.762 13.3699 28.6652 13.8954 28.6652C14.8359 28.6652 15.5597 28.9326 16.0669 29.4674C16.574 29.9929 16.8276 30.6799 16.8276 31.5281C16.8276 31.8324 16.7861 32.1598 16.7031 32.5101C16.6293 32.8513 16.4956 33.2063 16.302 33.5751C16.1084 33.9347 15.8732 34.262 15.5966 34.5571C15.3292 34.8429 14.9788 35.0827 14.5455 35.2763C14.1121 35.4607 13.6326 35.5529 13.1071 35.5529ZM13.1071 34.972C13.7248 34.972 14.2689 34.7968 14.7391 34.4464C15.2094 34.0868 15.5551 33.6581 15.7764 33.1602C15.9977 32.6623 16.1084 32.1551 16.1084 31.6388C16.1084 31.2423 16.0484 30.8781 15.9286 30.5462C15.8087 30.205 15.5782 29.9053 15.237 29.6472C14.8959 29.3798 14.4579 29.2461 13.9231 29.2461C13.3053 29.2461 12.7567 29.4259 12.2772 29.7855C11.807 30.1358 11.4612 30.56 11.2399 31.0579C11.0186 31.5558 10.908 32.0629 10.908 32.5793C10.908 32.9758 10.9679 33.3446 11.0878 33.6857C11.2076 34.0177 11.4382 34.3174 11.7793 34.5848C12.1297 34.8429 12.5723 34.972 13.1071 34.972ZM13.0241 31.7494C12.8397 31.5835 12.7475 31.4636 12.7475 31.3898C12.7475 31.3069 12.8028 31.2331 12.9134 31.1685C13.0241 31.0948 13.1301 31.0579 13.2315 31.0579C13.2776 31.0579 13.3145 31.0902 13.3422 31.1547C13.3699 31.21 13.3883 31.293 13.3975 31.4037C13.4067 31.5143 13.4113 31.5742 13.4113 31.5835C13.4943 31.5835 13.5727 31.5927 13.6465 31.6111C13.6557 31.6019 13.6741 31.542 13.7018 31.4313C13.7387 31.3207 13.7756 31.2423 13.8124 31.1962C13.8493 31.1409 13.8908 31.1132 13.9369 31.1132C14.0476 31.1132 14.1582 31.1593 14.2689 31.2515C14.3795 31.3437 14.4348 31.4405 14.4348 31.542C14.4348 31.5973 14.2919 31.6895 14.0061 31.8186C14.0522 31.8647 14.0798 31.9108 14.0891 31.9569C14.3104 31.8463 14.4487 31.7909 14.504 31.7909C14.6792 31.7909 14.7668 31.8924 14.7668 32.0952C14.7668 32.381 14.6515 32.524 14.421 32.524C14.3933 32.524 14.2781 32.4825 14.0752 32.3995C14.066 32.4271 14.0199 32.4825 13.9369 32.5655C14.149 32.7775 14.255 32.9204 14.255 32.9942C14.255 33.0864 14.2043 33.1648 14.1029 33.2293C14.0107 33.2847 13.9093 33.3123 13.7986 33.3123C13.6972 33.3123 13.6234 33.1141 13.5773 32.7176C13.5128 32.736 13.4482 32.736 13.3837 32.7176C13.3745 32.7268 13.3468 32.8006 13.3007 32.9389C13.2546 33.068 13.2085 33.1648 13.1624 33.2293C13.1163 33.2939 13.0702 33.3261 13.0241 33.3261C12.9227 33.3261 12.8166 33.28 12.706 33.1878C12.5953 33.0956 12.54 32.9988 12.54 32.8974C12.54 32.8605 12.6829 32.736 12.9688 32.524C12.9319 32.4871 12.895 32.4318 12.8581 32.358C12.812 32.4041 12.6829 32.4271 12.4709 32.4271C12.3233 32.4271 12.2496 32.3257 12.2496 32.1229C12.2496 31.9477 12.3279 31.8601 12.4847 31.8601C12.6968 31.8601 12.8258 31.8785 12.8719 31.9154C12.9088 31.8416 12.9595 31.7863 13.0241 31.7494ZM13.1762 31.9016C13.1025 31.9753 13.0656 32.0629 13.0656 32.1644C13.0656 32.2658 13.1025 32.358 13.1762 32.441C13.2592 32.5147 13.3514 32.5516 13.4528 32.5516C13.5543 32.5516 13.6419 32.5147 13.7156 32.441C13.7986 32.358 13.8401 32.2658 13.8401 32.1644C13.8401 32.0629 13.7986 31.9753 13.7156 31.9016C13.6419 31.8186 13.5543 31.7771 13.4528 31.7771C13.3514 31.7771 13.2592 31.8186 13.1762 31.9016Z" stroke="black" stroke-width="0.5"/>
<path d="M20.5492 35.5529C19.6087 35.5529 18.8849 35.2901 18.3778 34.7646C17.8799 34.2298 17.6309 33.5382 17.6309 32.6899C17.6309 32.3857 17.6678 32.0629 17.7416 31.7218C17.8246 31.3806 17.9583 31.0256 18.1427 30.6568C18.3271 30.288 18.5576 29.9607 18.8342 29.6748C19.1108 29.3798 19.4658 29.14 19.8992 28.9556C20.3326 28.762 20.812 28.6652 21.3376 28.6652C22.2781 28.6652 23.0019 28.9326 23.509 29.4674C24.0162 29.9929 24.2697 30.6799 24.2697 31.5281C24.2697 31.8324 24.2282 32.1598 24.1452 32.5101C24.0715 32.8513 23.9378 33.2063 23.7442 33.5751C23.5505 33.9347 23.3154 34.262 23.0388 34.5571C22.7714 34.8429 22.421 35.0827 21.9876 35.2763C21.5543 35.4607 21.0748 35.5529 20.5492 35.5529ZM20.5492 34.972C21.167 34.972 21.711 34.7968 22.1813 34.4464C22.6515 34.0868 22.9973 33.6581 23.2186 33.1602C23.4399 32.6623 23.5505 32.1551 23.5505 31.6388C23.5505 31.2423 23.4906 30.8781 23.3707 30.5462C23.2509 30.205 23.0203 29.9053 22.6792 29.6472C22.338 29.3798 21.9 29.2461 21.3653 29.2461C20.7475 29.2461 20.1989 29.4259 19.7194 29.7855C19.2491 30.1358 18.9034 30.56 18.6821 31.0579C18.4608 31.5558 18.3501 32.0629 18.3501 32.5793C18.3501 32.9758 18.4101 33.3446 18.5299 33.6857C18.6498 34.0177 18.8803 34.3174 19.2215 34.5848C19.5719 34.8429 20.0144 34.972 20.5492 34.972ZM20.4662 31.7494C20.2818 31.5835 20.1896 31.4636 20.1896 31.3898C20.1896 31.3069 20.245 31.2331 20.3556 31.1685C20.4662 31.0948 20.5723 31.0579 20.6737 31.0579C20.7198 31.0579 20.7567 31.0902 20.7844 31.1547C20.812 31.21 20.8305 31.293 20.8397 31.4037C20.8489 31.5143 20.8535 31.5742 20.8535 31.5835C20.9365 31.5835 21.0149 31.5927 21.0886 31.6111C21.0979 31.6019 21.1163 31.542 21.144 31.4313C21.1808 31.3207 21.2177 31.2423 21.2546 31.1962C21.2915 31.1409 21.333 31.1132 21.3791 31.1132C21.4897 31.1132 21.6004 31.1593 21.711 31.2515C21.8217 31.3437 21.877 31.4405 21.877 31.542C21.877 31.5973 21.7341 31.6895 21.4482 31.8186C21.4943 31.8647 21.522 31.9108 21.5312 31.9569C21.7525 31.8463 21.8908 31.7909 21.9461 31.7909C22.1213 31.7909 22.2089 31.8924 22.2089 32.0952C22.2089 32.381 22.0937 32.524 21.8632 32.524C21.8355 32.524 21.7202 32.4825 21.5174 32.3995C21.5082 32.4271 21.4621 32.4825 21.3791 32.5655C21.5912 32.7775 21.6972 32.9204 21.6972 32.9942C21.6972 33.0864 21.6465 33.1648 21.5451 33.2293C21.4528 33.2847 21.3514 33.3123 21.2408 33.3123C21.1393 33.3123 21.0656 33.1141 21.0195 32.7176C20.9549 32.736 20.8904 32.736 20.8259 32.7176C20.8166 32.7268 20.789 32.8006 20.7429 32.9389C20.6968 33.068 20.6507 33.1648 20.6046 33.2293C20.5585 33.2939 20.5124 33.3261 20.4662 33.3261C20.3648 33.3261 20.2588 33.28 20.1481 33.1878C20.0375 33.0956 19.9822 32.9988 19.9822 32.8974C19.9822 32.8605 20.1251 32.736 20.4109 32.524C20.374 32.4871 20.3372 32.4318 20.3003 32.358C20.2542 32.4041 20.1251 32.4271 19.913 32.4271C19.7655 32.4271 19.6917 32.3257 19.6917 32.1229C19.6917 31.9477 19.7701 31.8601 19.9268 31.8601C20.1389 31.8601 20.268 31.8785 20.3141 31.9154C20.351 31.8416 20.4017 31.7863 20.4662 31.7494ZM20.6184 31.9016C20.5446 31.9753 20.5077 32.0629 20.5077 32.1644C20.5077 32.2658 20.5446 32.358 20.6184 32.441C20.7014 32.5147 20.7936 32.5516 20.895 32.5516C20.9964 32.5516 21.084 32.5147 21.1578 32.441C21.2408 32.358 21.2823 32.2658 21.2823 32.1644C21.2823 32.0629 21.2408 31.9753 21.1578 31.9016C21.084 31.8186 20.9964 31.7771 20.895 31.7771C20.7936 31.7771 20.7014 31.8186 20.6184 31.9016Z" stroke="black" stroke-width="0.5"/>
<path d="M26.9264 32.192C26.9264 31.8324 27.0463 31.5466 27.286 31.3345C27.5258 31.1224 27.8208 31.0164 28.1712 31.0164C28.3648 31.0164 28.5354 31.0579 28.6829 31.1409C28.8305 31.2146 28.9549 31.3161 29.0564 31.4452C29.167 31.5742 29.2454 31.7172 29.2915 31.8739C29.3468 32.0307 29.3745 32.192 29.3745 32.358C29.3745 32.6807 29.2684 32.9527 29.0564 33.174C28.8535 33.3953 28.5907 33.5059 28.268 33.5059C28.102 33.5059 27.9361 33.4783 27.7701 33.423C27.6134 33.3584 27.4704 33.2708 27.3414 33.1602C27.2215 33.0495 27.1201 32.9158 27.0371 32.7591C26.9633 32.5931 26.9264 32.4041 26.9264 32.192ZM32.5002 25.7054C32.03 25.7054 31.6612 25.8898 31.3938 26.2586C31.1356 26.6182 30.9696 27.0885 30.8959 27.6693C30.8221 28.2502 30.776 28.8911 30.7576 29.5918C30.7391 30.2926 30.6976 30.9934 30.6331 31.6941C30.5778 32.3949 30.4717 33.0357 30.315 33.6166C30.1582 34.1975 29.8678 34.6723 29.4436 35.0412C29.0287 35.4008 28.4801 35.5806 27.7978 35.5806C27.1247 35.5806 26.5392 35.3316 26.0413 34.8337C25.5433 34.3266 25.2944 33.6719 25.2944 32.8697C25.2944 31.6157 25.6171 30.6015 26.2625 29.827C26.9172 29.0432 27.7148 28.6513 28.6553 28.6513C29.1532 28.6513 29.6511 28.7666 30.149 28.9971C30.1859 28.3885 30.2366 27.8768 30.3011 27.4619C30.3749 27.047 30.4948 26.6366 30.6607 26.2309C30.8267 25.8252 31.0618 25.521 31.3661 25.3181C31.6796 25.106 32.0623 25 32.5141 25C33.012 25 33.3946 25.1614 33.662 25.4841C33.9386 25.7976 34.077 26.171 34.077 26.6044C34.077 27.047 33.9433 27.4342 33.6759 27.7662C33.4085 28.0981 33.0489 28.2641 32.5971 28.2641C32.3204 28.2641 32.0945 28.1719 31.9194 27.9875C31.7442 27.803 31.6566 27.6002 31.6566 27.3789C31.6566 27.176 31.7073 27.0193 31.8087 26.9087C31.9194 26.7888 32.0484 26.7289 32.196 26.7289C32.3251 26.7289 32.4311 26.775 32.5141 26.8672C32.6063 26.9501 32.6524 27.07 32.6524 27.2268C32.6524 27.3743 32.6017 27.5264 32.5002 27.6832C32.7953 27.674 33.0258 27.5633 33.1918 27.3512C33.3578 27.1392 33.4407 26.8994 33.4407 26.632C33.4407 26.3739 33.3578 26.1572 33.1918 25.982C33.035 25.7976 32.8045 25.7054 32.5002 25.7054ZM27.8669 34.9444C28.1159 34.9444 28.3372 34.9121 28.5308 34.8475C28.7337 34.783 28.9088 34.677 29.0564 34.5294C29.2039 34.3727 29.3284 34.2205 29.4298 34.073C29.5405 33.9163 29.628 33.6996 29.6926 33.423C29.7664 33.1463 29.8263 32.9112 29.8724 32.7176C29.9185 32.5147 29.9554 32.2335 29.983 31.8739C30.0199 31.5143 30.043 31.2285 30.0522 31.0164C30.0614 30.7951 30.0752 30.4862 30.0937 30.0897C30.1029 29.9422 30.1075 29.8316 30.1075 29.7578C29.6188 29.4627 29.1532 29.3152 28.7106 29.3152C27.9914 29.3152 27.3598 29.6425 26.8158 30.2972C26.281 30.9519 26.0136 31.7863 26.0136 32.8006C26.0136 33.3723 26.198 33.8748 26.5668 34.3081C26.9449 34.7323 27.3782 34.9444 27.8669 34.9444ZM27.4658 32.2473C27.4658 32.4686 27.5304 32.6669 27.6595 32.8421C27.7885 33.008 27.9683 33.091 28.1989 33.091C28.4109 33.091 28.5723 33.0219 28.6829 32.8836C28.8028 32.7453 28.8627 32.5562 28.8627 32.3165C28.8627 32.086 28.8028 31.8877 28.6829 31.7218C28.5631 31.5558 28.3833 31.4728 28.1435 31.4728C27.9222 31.4728 27.7517 31.5466 27.6318 31.6941C27.5212 31.8324 27.4658 32.0168 27.4658 32.2473Z" stroke="black" stroke-width="0.5"/>
<path d="M35.8741 25.0138C36.2153 25.0138 36.4965 25.1245 36.7178 25.3458C36.9391 25.5671 37.0497 25.8483 37.0497 26.1894C37.0497 26.5767 36.9206 26.8856 36.6625 27.1161C36.4043 27.3466 36.1 27.4619 35.7496 27.4619C35.3992 27.4619 35.1134 27.3558 34.8921 27.1438C34.6708 26.9317 34.5602 26.6551 34.5602 26.3139C34.5602 25.9728 34.68 25.6731 34.9198 25.4149C35.1687 25.1475 35.4868 25.0138 35.8741 25.0138ZM35.8188 25.7192C35.6436 25.7192 35.4914 25.7699 35.3624 25.8713C35.2425 25.9635 35.1826 26.1019 35.1826 26.2863C35.1826 26.6182 35.3716 26.7842 35.7496 26.7842C35.9248 26.7842 36.0769 26.7381 36.206 26.6459C36.3351 26.5537 36.3997 26.4154 36.3997 26.2309C36.3997 25.8898 36.206 25.7192 35.8188 25.7192ZM36.4135 34.5709C36.1738 34.4603 36.0539 34.2805 36.0539 34.0315C36.0539 33.8563 36.1138 33.7042 36.2337 33.5751C36.3536 33.446 36.5057 33.3815 36.6901 33.3815C36.8653 33.3815 37.0174 33.4506 37.1465 33.5889C37.2756 33.7272 37.3402 33.8886 37.3402 34.073C37.3402 34.4972 37.105 34.8521 36.6348 35.138C36.1645 35.4238 35.6897 35.5667 35.2102 35.5667C34.8414 35.5667 34.5325 35.4699 34.2836 35.2763C34.0438 35.0827 33.924 34.7968 33.924 34.4188C33.924 34.0039 34.0623 33.4598 34.3389 32.7867C34.6155 32.1044 34.8921 31.459 35.1687 30.8504C35.4453 30.2327 35.5836 29.7993 35.5836 29.5503C35.5836 29.3106 35.4638 29.1907 35.2241 29.1907C35.0212 29.1907 34.7676 29.2645 34.4634 29.412C34.1683 29.5596 33.9747 29.7071 33.8825 29.8546C33.9931 29.8915 34.0853 29.956 34.1591 30.0482C34.2421 30.1405 34.2836 30.2465 34.2836 30.3664C34.2836 30.5139 34.2328 30.643 34.1314 30.7536C34.03 30.8643 33.9101 30.9196 33.7718 30.9196C33.4307 30.9196 33.2601 30.643 33.2601 30.0897C33.2601 29.6564 33.4629 29.3014 33.8686 29.0248C34.2836 28.7481 34.7261 28.6098 35.1964 28.6098C35.5099 28.6098 35.7681 28.6928 35.9709 28.8588C36.1738 29.0248 36.2752 29.2691 36.2752 29.5918C36.2752 29.8039 36.1369 30.2142 35.8603 30.8228C35.5929 31.4313 35.3255 32.0722 35.0581 32.7453C34.7907 33.4091 34.657 33.9301 34.657 34.3081C34.657 34.7323 34.8552 34.9444 35.2517 34.9444C35.7496 34.9444 36.1369 34.8199 36.4135 34.5709Z" stroke="black" stroke-width="0.5"/>
<path d="M42.4479 33.4368C42.4295 33.5843 42.3557 33.7134 42.2267 33.8241C42.1068 33.9347 41.9685 33.99 41.8117 33.99C41.6734 33.99 41.5536 33.9485 41.4521 33.8656C41.3599 33.7733 41.3138 33.6489 41.3138 33.4921C41.3138 33.3261 41.3968 33.1832 41.5628 33.0634C41.7287 32.9435 41.9408 32.8836 42.199 32.8836C42.4756 32.8836 42.6923 32.9758 42.849 33.1602C43.0058 33.3446 43.0842 33.5751 43.0842 33.8517C43.0842 34.3496 42.8951 34.7646 42.5171 35.0965C42.1483 35.4192 41.6412 35.5806 40.9957 35.5806C40.2212 35.5806 39.5757 35.3362 39.0594 34.8475C38.543 34.3588 38.2849 33.6535 38.2849 32.7314C38.2849 32.0768 38.4232 31.4405 38.6998 30.8228C38.9856 30.1958 39.4006 29.6748 39.9446 29.2599C40.4978 28.8357 41.111 28.6237 41.7841 28.6237C42.4387 28.6237 42.9459 28.7804 43.3055 29.0939C43.6743 29.3982 43.8587 29.7716 43.8587 30.2142C43.8587 30.8689 43.5636 31.3852 42.9735 31.7633C42.3834 32.1413 41.7011 32.3303 40.9266 32.3303C40.2166 32.3303 39.6357 32.1782 39.1839 31.8739C39.0917 32.1505 39.0456 32.4686 39.0456 32.8282C39.0456 33.4921 39.2254 34.0131 39.585 34.3911C39.9446 34.7692 40.4517 34.9582 41.1064 34.9582C41.4475 34.9582 41.7702 34.866 42.0745 34.6816C42.388 34.4879 42.5448 34.2298 42.5448 33.907C42.5448 33.7226 42.5125 33.5659 42.4479 33.4368ZM39.3775 31.3622C39.7187 31.6019 40.1935 31.7218 40.8021 31.7218C41.4291 31.7218 41.9777 31.5881 42.4479 31.3207C42.9274 31.0441 43.1671 30.6522 43.1671 30.1451C43.1671 29.5457 42.7707 29.2461 41.9777 29.2461C41.3599 29.2461 40.8113 29.4535 40.3318 29.8684C39.8524 30.2834 39.5343 30.7813 39.3775 31.3622Z" stroke="black" stroke-width="0.5"/>
</svg>
